<svg id="Capa_1" enable-background="new 0 0 314.635 314.635" height="512" viewBox="0 0 314.635 314.635" width="512" xmlns="http://www.w3.org/2000/svg"><g><path d="m292.34 85.455c0-47.194-33.453-85.451-74.719-85.451-8.538 0-18.621 4.22-28.074 9.642-20.03 11.488-44.444 11.488-64.474 0-9.453-5.422-19.536-9.642-28.073-9.642-41.266 0-74.719 38.257-74.719 85.451 0 25.292 9.622 47.996 24.896 63.636 8.148 8.343 11.588 20.191 9.362 31.638l-.047.243c-11.352 57.598 6.828 93.105 26.275 126.306 7.611 12.993 25.897 7.719 27.119-7.648 2.264-28.477 13.843-83.044 35.866-113.274 5.648-7.754 17.47-7.754 23.118 0 22.022 30.23 33.601 84.797 35.866 113.274 1.222 15.367 19.508 20.641 27.119 7.648 19.447-33.201 37.628-68.708 26.276-126.307l-.047-.243c-2.226-11.447 1.215-23.296 9.362-31.638 15.273-15.639 24.894-38.343 24.894-63.635z" fill="#e1e6e9"/><path d="m267.449 149.081c-8.171 8.345-11.579 20.186-9.35 31.634l.044.262c11.36 57.587-6.86 93.11-26.303 126.317-5.855 9.962-17.958 9.175-23.812 1.311.306-.393.611-.83.874-1.311 19.443-33.207 37.664-68.729 26.303-126.317l-.044-.262c-2.228-11.448 1.18-23.288 9.35-31.634 15.249-15.642 24.905-38.319 24.905-63.617 0-41.945-26.434-76.812-61.258-84.022 3.277-.918 6.466-1.442 9.481-1.442 41.246 0 74.715 38.275 74.715 85.464 0 25.298-9.656 47.974-24.905 63.617z" fill="#d5d6db"/><path d="m64.966 130.029c-14.104-23.649-17.993-45.555-11.557-65.111 9.667-29.369 39.078-41.997 40.326-42.52l5.084 12.082c-.252.107-25.266 10.974-32.994 34.639-5.146 15.764-1.649 33.999 10.396 54.196z" fill="#fff"/></g></svg>